<?xml version="1.0" encoding="utf-8"?>
<!-- Generator: Adobe Illustrator 25.2.1, SVG Export Plug-In . SVG Version: 6.00 Build 0)  -->
<svg version="1.1" id="Layer_1" xmlns="http://www.w3.org/2000/svg" xmlns:xlink="http://www.w3.org/1999/xlink" x="0px" y="0px"
	 viewBox="0 0 78.9 67.1" style="enable-background:new 0 0 78.9 67.1;" xml:space="preserve">
<g>
	<g>
		<path d="M35.3,24.8c-0.7-2.5-2.8-4.3-5.2-4.8c-4.3-0.8-8,2.5-8,6.6c0,1,0.2,1.9,0.6,2.7l0.5,0.9l0.2,0.3l2,3.3l1.3-2
			c0.6-0.9,0.6-2,0-2.9l-0.2-0.6c-0.3-0.5-0.5-1-0.5-1.6c0-1.6,1.3-2.9,2.9-2.9c1.6,0,2.9,1.3,2.9,2.9c0,0.5-0.1,1-0.4,1.4l-0.2,0.3
			L30.7,29l-1.8,2.8l-2.3,3.5L24.8,38l-3.5,5.2h3c1,0,1.9-0.5,2.4-1.3l0.9-1.2l1.3-2l2.3-3.5l2.3-3.5l0.8-1.3l0.1-0.2
			c0.2-0.3,0.4-0.7,0.5-1.1C35.6,27.8,35.8,26.3,35.3,24.8z"/>
	</g>
	<g>
		<path d="M54.1,38l-1.8-2.7L50,31.8L48.2,29l-0.5-0.8L47.5,28c-0.2-0.4-0.4-0.9-0.4-1.4c0-1.6,1.3-2.9,2.9-2.9
			c1.6,0,2.9,1.3,2.9,2.9c0,0.6-0.2,1.2-0.5,1.6l-0.2,0.6c-0.6,0.9-0.6,2,0,2.9l1.3,2l2-3.3l0.2-0.3l0.5-0.9
			c0.4-0.8,0.6-1.8,0.6-2.7c0-4.1-3.7-7.4-8-6.6c-2.5,0.4-4.6,2.3-5.2,4.8c-0.4,1.6-0.3,3.1,0.3,4.4c0.2,0.4,0.3,0.7,0.6,1.1
			l0.1,0.2l0.9,1.3l2.3,3.5l2.3,3.5l1.3,2l0.9,1.2c0.5,0.8,1.4,1.3,2.4,1.3h3L54.1,38z"/>
		<path d="M48.2,41.3l-4.8,7.1c-0.3,0.4-0.6,0.9-1,1.4h-5.8c-0.4-0.5-0.7-1-1-1.4l-4.8-7.1c-0.6-0.9-0.6-2.1,0-3l1.3-2l7.4,10.9
			l7.4-10.9l1.3,2C48.8,39.3,48.8,40.5,48.2,41.3z"/>
	</g>
</g>
<path d="M11.6,41.6L11.6,41.6z"/>
</svg>
