<?xml version="1.0" encoding="utf-8"?>
<!-- Generator: Adobe Illustrator 25.2.1, SVG Export Plug-In . SVG Version: 6.00 Build 0)  -->
<svg version="1.1" id="Layer_1" xmlns="http://www.w3.org/2000/svg" xmlns:xlink="http://www.w3.org/1999/xlink" x="0px" y="0px"
	 viewBox="0 0 78.9 67.1" style="enable-background:new 0 0 78.9 67.1;" xml:space="preserve">
<style type="text/css">
	.st0{fill:none;}
</style>
<g>
	<g>
		<path d="M35.3,24.7c-0.1-0.2-0.1-0.5-0.2-0.7c-0.8-2.1-2.8-3.7-5-4.1c-4.3-0.8-8,2.5-8,6.6c0,1,0.2,1.9,0.6,2.7l0.5,0.9l0.2,0.3
			l2,3.2l1.3-2c0.6-0.9,0.6-2,0-2.9l-0.2-0.6c-0.3-0.5-0.5-1-0.5-1.6c0-1.6,1.3-2.9,2.9-2.9c1.1,0,2.1,0.6,2.6,1.5
			c0.2,0.4,0.3,0.9,0.3,1.3c0,0.5-0.1,1-0.4,1.4l-0.2,0.3L30.7,29l-1.8,2.8l-0.3,0.4l-2,3.1l-1.8,2.7l-2.5,3.7l-1,1.4h3
			c0.7,0,1.5-0.3,2-0.8c0.2-0.1,0.3-0.3,0.4-0.5l0.9-1.2l1.3-2l1.8-2.8l0.4-0.7l1.7-2.6l0.6-0.9l0.9-1.3l0.1-0.2
			c0.2-0.3,0.4-0.7,0.5-1.1c0.2-0.4,0.3-0.8,0.4-1.2C35.6,26.9,35.6,25.8,35.3,24.7z"/>
	</g>
	<g>
		<path d="M54.1,37.9l-1.8-2.7l-0.1-0.1l-0.8-1.3L50,31.8L48.2,29l-0.5-0.8l-0.2-0.3c-0.2-0.4-0.4-0.9-0.4-1.4
			c0-1.6,1.3-2.9,2.9-2.9c1.6,0,2.9,1.3,2.9,2.9c0,0.6-0.2,1.2-0.5,1.6l-0.2,0.6c-0.6,0.9-0.6,2,0,2.9l1.3,2l2-3.2l0.2-0.3l0.5-0.9
			c0.4-0.8,0.6-1.8,0.6-2.7c0-4.1-3.7-7.4-8-6.6c-2.5,0.4-4.6,2.3-5.2,4.8c-0.4,1.6-0.3,3.1,0.3,4.4c0.2,0.4,0.3,0.7,0.5,1.1
			l0.1,0.2l0.9,1.3l1.4,2.1l0.9,1.4l1.6,2.4l0.7,1.1l1.3,2l0.9,1.2c0.5,0.8,1.5,1.3,2.4,1.3h3L54.1,37.9z"/>
		<path d="M48.2,41.3l-1,1.4l-2.6,3.8l-1.3,1.9c-0.3,0.4-0.6,0.9-1,1.4h-5.8c-0.4-0.5-0.7-1-1-1.4l-4.8-7.1c-0.6-0.9-0.6-2.1,0-3
			l1.2-1.7l0.1-0.2l0.3,0.5l7.1,10.5l3.4-5.1l2.1-3.1l1-1.6l0.8-1.2l0.8,1.2l0.5,0.7C48.8,39.3,48.8,40.4,48.2,41.3z"/>
	</g>
</g>
<g>
	<g>
		<path d="M42.4,52v2.5c0,0.7-0.6,1.3-1.3,1.3l-4.4,0h0v-2.5c0-0.7,0.6-1.3,1.3-1.3H42.4z"/>
	</g>
</g>
<path d="M11.6,41.6L11.6,41.6z"/>
<polyline class="st0" points="36.6,59.2 36.6,55.1 36.6,51.2 36.6,49.8 36.6,48.2 "/>
<polyline class="st0" points="42.4,59.4 42.4,55 42.4,51.2 42.4,49.8 42.4,48.4 "/>
</svg>
